. 
 
http://www.torrenting.com          :     Once & For all ;)


               www . Torrenting . Com 

(((((((((((((= Enjoy No RAR releases =))))))))))))))))))))


...................................NFO:....................................

.ooooo oooo   oooo oooooooo8 oooooooooo  o88   oooooooooo       o      ooooo       
 888   8888o  88 888         888    888 oooo   888    888     888      888        
 888   88 888o88  888oooooo  888oooo88   888   888oooo88     8  88     888        
 888   88   8888         888 888         888   888  88o     8oooo88    888      o 
o888o o88o    88 o88oooo888 o888o       o888o o888o  88o8 o88o  o888o o888ooooo88 

 
TITLE: 

Contraband 2012 TS READNFO XViD - INSPiRAL

IMDB: 
 
http://www.imdb.com/title/tt1524137/


SOURCES:

VIDEO - Unknown THANKS
AUDIO - unknown THANKS
SUBS  - ENG bY Unknown

STATS:

Video
ID                               : 0
Format                           : MPEG-4 Visual
Format profile                   : Advanced Simple@L5
Format settings, BVOP            : 2
Format settings, QPel            : No
Format settings, GMC             : No warppoints
Format settings, Matrix          : Default (MPEG)
Muxing mode                      : Packed bitstream
Codec ID                         : XVID
Codec ID/Hint                    : XviD
Duration                         : 1h 42mn
Bit rate                         : 1 786 Kbps
Width                            : 672 pixels
Height                           : 288 pixels
Display aspect ratio             : 2.35:1
Frame rate                       : 25.000 fps
Color space                      : YUV
Chroma subsampling               : 4:2:0
Bit depth                        : 8 bits
Scan type                        : Progressive
Compression mode                 : Lossy
Bits/(Pixel*Frame)               : 0.369
Stream size                      : 1.28 GiB (93%)
Writing library                  : XviD 64

Audio
ID                               : 1
Format                           : MPEG Audio
Format version                   : Version 1
Format profile                   : Layer 3
Codec ID                         : 55
Codec ID/Hint                    : MP3
Duration                         : 1h 41mn
Bit rate mode                    : Constant
Bit rate                         : 128 Kbps
Channel(s)                       : 2 channels
Sampling rate                    : 48.0 KHz
Compression mode                 : Lossy
Delay relative to video          : 9ms
Stream size                      : 93.3 MiB (7%)
Alignment                        : Split accross interleaves
Interleave, duration             : 40 ms (1.00 video frame)
Interleave, preload duration     : 500 ms




NOTES:

Ok this is just a re-encode of unknowns TS ....they did a good job on the subs and removing the rainbow effect.However imho
removing it wrecks the video,but each to their own and still nice work removing it.
All we've done is took the rip and gave it a touch TLC changing the brightness,contrast,chroma,rgb colours,resized.
Audio strip forward strip and remux.
Not the best and far from it,but ok viewing on a smaller screen


SCREENS:

[IMG]http://i.imgur.com/vMQ4m.png[/IMG]
[IMG]http://i.imgur.com/Pbcx8.png[/IMG]
[IMG]http://i.imgur.com/jJQgC.png[/IMG]
[IMG]http://i.imgur.com/fL7vy.png[/IMG]
[IMG]http://i.imgur.com/uzU2v.png[/IMG]


GREETZ: 

Past,Present and Future